HIERARCHY
ROOT mixamorig:Hips
{
	OFFSET -0.000008 104.274872 1.554316
	CHANNELS 6 Xposition Yposition Zposition Xrotation Yrotation Zrotation
	JOINT mixamorig:Spine
	{
		OFFSET -0.000005 10.181595 0.131519
		CHANNELS 6 Xposition Yposition Zposition Xrotation Yrotation Zrotation
		JOINT mixamorig:Spine1
		{
			OFFSET -0.000000 9.893959 -1.470707
			CHANNELS 6 Xposition Yposition Zposition Xrotation Yrotation Zrotation
			JOINT mixamorig:Spine2
			{
				OFFSET -0.000000 9.220757 -1.370641
				CHANNELS 6 Xposition Yposition Zposition Xrotation Yrotation Zrotation
				JOINT mixamorig:Neck
				{
					OFFSET 0.000001 16.740417 -2.049036
					CHANNELS 6 Xposition Yposition Zposition Xrotation Yrotation Zrotation
					JOINT mixamorig:Head
					{
						OFFSET 0.000000 9.617874 1.685006
						CHANNELS 6 Xposition Yposition Zposition Xrotation Yrotation Zrotation
						JOINT mixamorig:HeadTop_End
						{
							OFFSET 0.000002 22.037354 7.501101
							CHANNELS 6 Xposition Yposition Zposition Xrotation Yrotation Zrotation
							End Site
							{
								OFFSET 0.000168 2310.654297 -282.823242
							}
						}
					}
				}
				JOINT mixamorig:RightShoulder
				{
					OFFSET -4.569970 11.014908 -2.160885
					CHANNELS 6 Xposition Yposition Zposition Xrotation Yrotation Zrotation
					JOINT mixamorig:RightArm
					{
						OFFSET -10.592851 -0.524811 -2.232101
						CHANNELS 6 Xposition Yposition Zposition Xrotation Yrotation Zrotation
						JOINT mixamorig:RightForeArm
						{
							OFFSET -27.841511 0.000031 -0.000004
							CHANNELS 6 Xposition Yposition Zposition Xrotation Yrotation Zrotation
							JOINT mixamorig:RightHand
							{
								OFFSET -28.328831 -0.000015 0.000015
								CHANNELS 6 Xposition Yposition Zposition Xrotation Yrotation Zrotation
								JOINT mixamorig:RightHandThumb1
								{
									OFFSET -2.464806 -1.573990 2.681852
									CHANNELS 6 Xposition Yposition Zposition Xrotation Yrotation Zrotation
									JOINT mixamorig:RightHandThumb2
									{
										OFFSET -3.215179 -1.872803 1.924282
										CHANNELS 6 Xposition Yposition Zposition Xrotation Yrotation Zrotation
										JOINT mixamorig:RightHandThumb3
										{
											OFFSET -2.654831 -1.527969 1.512609
											CHANNELS 6 Xposition Yposition Zposition Xrotation Yrotation Zrotation
											JOINT mixamorig:RightHandThumb4
											{
												OFFSET -2.018814 -1.152008 1.108052
												CHANNELS 6 Xposition Yposition Zposition Xrotation Yrotation Zrotation
												End Site
												{
													OFFSET -188.809540 -114.533607 132.431396
												}
											}
										}
									}
								}
								JOINT mixamorig:RightHandIndex1
								{
									OFFSET -9.108284 -0.517868 2.259835
									CHANNELS 6 Xposition Yposition Zposition Xrotation Yrotation Zrotation
									JOINT mixamorig:RightHandIndex2
									{
										OFFSET -3.699989 0.000000 0.001215
										CHANNELS 6 Xposition Yposition Zposition Xrotation Yrotation Zrotation
										JOINT mixamorig:RightHandIndex3
										{
											OFFSET -2.850006 0.000031 -0.000522
											CHANNELS 6 Xposition Yposition Zposition Xrotation Yrotation Zrotation
											JOINT mixamorig:RightHandIndex4
											{
												OFFSET -2.772186 -0.000015 -0.000020
												CHANNELS 6 Xposition Yposition Zposition Xrotation Yrotation Zrotation
												End Site
												{
													OFFSET -277.218445 0.000000 -0.050231
												}
											}
										}
									}
								}
								JOINT mixamorig:RightHandMiddle1
								{
									OFFSET -9.532516 -0.000031 -0.000023
									CHANNELS 6 Xposition Yposition Zposition Xrotation Yrotation Zrotation
									JOINT mixamorig:RightHandMiddle2
									{
										OFFSET -3.700005 -0.000015 0.003713
										CHANNELS 6 Xposition Yposition Zposition Xrotation Yrotation Zrotation
										JOINT mixamorig:RightHandMiddle3
										{
											OFFSET -2.949974 0.000015 -0.002054
											CHANNELS 6 Xposition Yposition Zposition Xrotation Yrotation Zrotation
											JOINT mixamorig:RightHandMiddle4
											{
												OFFSET -2.946640 0.000000 -0.000156
												CHANNELS 6 Xposition Yposition Zposition Xrotation Yrotation Zrotation
												End Site
												{
													OFFSET -294.664337 0.000000 -0.113670
												}
											}
										}
									}
								}
								JOINT mixamorig:RightHandRing1
								{
									OFFSET -9.103600 -0.043076 -1.865134
									CHANNELS 6 Xposition Yposition Zposition Xrotation Yrotation Zrotation
									JOINT mixamorig:RightHandRing2
									{
										OFFSET -3.379288 0.000000 -0.001055
										CHANNELS 6 Xposition Yposition Zposition Xrotation Yrotation Zrotation
										JOINT mixamorig:RightHandRing3
										{
											OFFSET -2.889687 -0.000015 0.000379
											CHANNELS 6 Xposition Yposition Zposition Xrotation Yrotation Zrotation
											JOINT mixamorig:RightHandRing4
											{
												OFFSET -2.638809 -0.000015 0.000941
												CHANNELS 6 Xposition Yposition Zposition Xrotation Yrotation Zrotation
												End Site
												{
													OFFSET -263.880371 0.000000 0.516020
												}
											}
										}
									}
								}
								JOINT mixamorig:RightHandPinky1
								{
									OFFSET -8.076683 -0.486710 -3.806280
									CHANNELS 6 Xposition Yposition Zposition Xrotation Yrotation Zrotation
									JOINT mixamorig:RightHandPinky2
									{
										OFFSET -3.600014 -0.000015 -0.003747
										CHANNELS 6 Xposition Yposition Zposition Xrotation Yrotation Zrotation
										JOINT mixamorig:RightHandPinky3
										{
											OFFSET -2.099983 0.000000 -0.005739
											CHANNELS 6 Xposition Yposition Zposition Xrotation Yrotation Zrotation
											JOINT mixamorig:RightHandPinky4
											{
												OFFSET -2.115768 -0.000031 -0.003680
												CHANNELS 6 Xposition Yposition Zposition Xrotation Yrotation Zrotation
												End Site
												{
													OFFSET -211.577087 0.000000 -0.350686
												}
											}
										}
									}
								}
							}
						}
					}
				}
				JOINT mixamorig:LeftShoulder
				{
					OFFSET 4.570447 11.014725 -2.160855
					CHANNELS 6 Xposition Yposition Zposition Xrotation Yrotation Zrotation
					JOINT mixamorig:LeftArm
					{
						OFFSET 10.592371 -0.524597 -2.232119
						CHANNELS 6 Xposition Yposition Zposition Xrotation Yrotation Zrotation
						JOINT mixamorig:LeftForeArm
						{
							OFFSET 27.841532 -0.000031 0.000026
							CHANNELS 6 Xposition Yposition Zposition Xrotation Yrotation Zrotation
							JOINT mixamorig:LeftHand
							{
								OFFSET 28.328846 -0.000061 0.000022
								CHANNELS 6 Xposition Yposition Zposition Xrotation Yrotation Zrotation
								JOINT mixamorig:LeftHandThumb1
								{
									OFFSET 2.466141 -1.576172 2.681732
									CHANNELS 6 Xposition Yposition Zposition Xrotation Yrotation Zrotation
									JOINT mixamorig:LeftHandThumb2
									{
										OFFSET 3.217812 -1.872070 1.916482
										CHANNELS 6 Xposition Yposition Zposition Xrotation Yrotation Zrotation
										JOINT mixamorig:LeftHandThumb3
										{
											OFFSET 2.656029 -1.528778 1.514513
											CHANNELS 6 Xposition Yposition Zposition Xrotation Yrotation Zrotation
											JOINT mixamorig:LeftHandThumb4
											{
												OFFSET 2.020889 -1.154053 1.115139
												CHANNELS 6 Xposition Yposition Zposition Xrotation Yrotation Zrotation
												End Site
												{
													OFFSET 190.885437 -115.081749 130.048782
												}
											}
										}
									}
								}
								JOINT mixamorig:LeftHandIndex1
								{
									OFFSET 9.109314 -0.518021 2.259871
									CHANNELS 6 Xposition Yposition Zposition Xrotation Yrotation Zrotation
									JOINT mixamorig:LeftHandIndex2
									{
										OFFSET 3.699989 0.000000 -0.000322
										CHANNELS 6 Xposition Yposition Zposition Xrotation Yrotation Zrotation
										JOINT mixamorig:LeftHandIndex3
										{
											OFFSET 2.850006 0.000000 0.000352
											CHANNELS 6 Xposition Yposition Zposition Xrotation Yrotation Zrotation
											JOINT mixamorig:LeftHandIndex4
											{
												OFFSET 2.774864 -0.000031 -0.000027
												CHANNELS 6 Xposition Yposition Zposition Xrotation Yrotation Zrotation
												End Site
												{
													OFFSET 277.486267 0.000000 -0.009857
												}
											}
										}
									}
								}
								JOINT mixamorig:LeftHandMiddle1
								{
									OFFSET 9.533394 0.000061 0.000044
									CHANNELS 6 Xposition Yposition Zposition Xrotation Yrotation Zrotation
									JOINT mixamorig:LeftHandMiddle2
									{
										OFFSET 3.699989 -0.000015 -0.000231
										CHANNELS 6 Xposition Yposition Zposition Xrotation Yrotation Zrotation
										JOINT mixamorig:LeftHandMiddle3
										{
											OFFSET 2.949997 -0.000015 -0.000059
											CHANNELS 6 Xposition Yposition Zposition Xrotation Yrotation Zrotation
											JOINT mixamorig:LeftHandMiddle4
											{
												OFFSET 2.952896 0.000031 0.000063
												CHANNELS 6 Xposition Yposition Zposition Xrotation Yrotation Zrotation
												End Site
												{
													OFFSET 295.289337 0.000000 0.022810
												}
											}
										}
									}
								}
								JOINT mixamorig:LeftHandRing1
								{
									OFFSET 9.104523 -0.042999 -1.865074
									CHANNELS 6 Xposition Yposition Zposition Xrotation Yrotation Zrotation
									JOINT mixamorig:LeftHandRing2
									{
										OFFSET 3.150009 -0.000031 0.000043
										CHANNELS 6 Xposition Yposition Zposition Xrotation Yrotation Zrotation
										JOINT mixamorig:LeftHandRing3
										{
											OFFSET 2.949982 -0.000015 0.000040
											CHANNELS 6 Xposition Yposition Zposition Xrotation Yrotation Zrotation
											JOINT mixamorig:LeftHandRing4
											{
												OFFSET 2.644348 0.000000 0.000057
												CHANNELS 6 Xposition Yposition Zposition Xrotation Yrotation Zrotation
												End Site
												{
													OFFSET 264.434631 0.000000 0.012105
												}
											}
										}
									}
								}
								JOINT mixamorig:LeftHandPinky1
								{
									OFFSET 8.077789 -0.486847 -3.806259
									CHANNELS 6 Xposition Yposition Zposition Xrotation Yrotation Zrotation
									JOINT mixamorig:LeftHandPinky2
									{
										OFFSET 3.599953 0.000031 0.014727
										CHANNELS 6 Xposition Yposition Zposition Xrotation Yrotation Zrotation
										JOINT mixamorig:LeftHandPinky3
										{
											OFFSET 2.100021 0.000015 0.007705
											CHANNELS 6 Xposition Yposition Zposition Xrotation Yrotation Zrotation
											JOINT mixamorig:LeftHandPinky4
											{
												OFFSET 2.125504 0.000031 0.007517
												CHANNELS 6 Xposition Yposition Zposition Xrotation Yrotation Zrotation
												End Site
												{
													OFFSET 212.550781 0.000000 0.625752
												}
											}
										}
									}
								}
							}
						}
					}
				}
			}
		}
	}
	JOINT mixamorig:RightUpLeg
	{
		OFFSET -8.207787 -6.751648 -1.599560
		CHANNELS 6 Xposition Yposition Zposition Xrotation Yrotation Zrotation
		JOINT mixamorig:RightLeg
		{
			OFFSET -0.000002 -44.370117 0.345942
			CHANNELS 6 Xposition Yposition Zposition Xrotation Yrotation Zrotation
			JOINT mixamorig:RightFoot
			{
				OFFSET 0.000003 -44.423679 -3.043532
				CHANNELS 6 Xposition Yposition Zposition Xrotation Yrotation Zrotation
				JOINT mixamorig:RightToeBase
				{
					OFFSET -0.000002 -8.728671 10.710558
					CHANNELS 6 Xposition Yposition Zposition Xrotation Yrotation Zrotation
					JOINT mixamorig:RightToe_End
					{
						OFFSET -0.000001 -0.000679 9.278119
						CHANNELS 6 Xposition Yposition Zposition Xrotation Yrotation Zrotation
						End Site
						{
							OFFSET 0.000000 -0.067690 927.812134
						}
					}
				}
			}
		}
	}
	JOINT mixamorig:LeftUpLeg
	{
		OFFSET 8.207793 -6.751686 -1.599556
		CHANNELS 6 Xposition Yposition Zposition Xrotation Yrotation Zrotation
		JOINT mixamorig:LeftLeg
		{
			OFFSET -0.000004 -44.370014 0.346954
			CHANNELS 6 Xposition Yposition Zposition Xrotation Yrotation Zrotation
			JOINT mixamorig:LeftFoot
			{
				OFFSET -0.000001 -44.423672 -3.044401
				CHANNELS 6 Xposition Yposition Zposition Xrotation Yrotation Zrotation
				JOINT mixamorig:LeftToeBase
				{
					OFFSET -0.000002 -8.728669 10.710558
					CHANNELS 6 Xposition Yposition Zposition Xrotation Yrotation Zrotation
					JOINT mixamorig:LeftToe_End
					{
						OFFSET -0.000003 -0.000679 9.278133
						CHANNELS 6 Xposition Yposition Zposition Xrotation Yrotation Zrotation
						End Site
						{
							OFFSET 0.000000 -0.068021 927.813477
						}
					}
				}
			}
		}
	}
}
MOTION
Frames: 3
Frame Time: 0.033333
0.000006 104.270477 1.554256 0.000010 0.000003 -0.000113 -0.000005 10.181587 0.131522 0.000001 -0.000003 0.000084 -0.000000 9.893967 -1.470711 0.000001 0.000000 -0.000000 -0.000000 9.220802 -1.370642 0.000000 -0.000000 -0.000000 0.000001 16.740433 -2.049030 0.000000 -0.000000 -0.000000 0.000000 9.617859 1.685014 0.000000 0.000000 0.000000 0.000002 22.037384 7.501101 0.000000 -0.000000 0.000000 -4.569968 11.014880 -2.160881 0.000008 0.000001 -0.000038 -10.592865 -0.524675 -2.232045 67.899409 6.370550 -4.291284 -27.841536 0.000026 0.000528 120.676206 67.269208 -98.869194 -28.328836 0.000021 0.000025 -0.000323 -0.000045 0.000007 -2.464442 -1.573890 2.682393 -34.673452 -159.105077 20.458462 -3.215282 -1.872602 1.924682 161.138287 30.865857 -3.608897 -2.654930 -1.527921 1.513117 147.547072 25.288825 -51.745370 -2.018819 -1.151998 1.108063 -0.000007 -0.000002 0.000005 -9.108379 -0.517568 2.260107 90.206472 17.965622 -18.076987 -3.700085 0.000306 0.001498 88.218068 15.416516 -14.926383 -2.850084 0.000354 -0.000316 86.931451 11.547723 -10.948132 -2.772196 -0.000001 -0.000022 0.000001 0.000004 0.000001 -9.532582 0.000272 0.000201 85.367823 14.547985 -13.557441 -3.700083 0.000321 0.003926 85.418605 11.076765 -10.142849 -2.950047 0.000335 -0.001843 86.978115 10.691287 -10.138040 -2.946618 0.000000 -0.000157 0.000001 -0.000001 0.000000 -9.103693 -0.042748 -1.864917 84.645189 15.903098 -14.457653 -3.379324 0.000306 -0.000839 87.261185 9.027748 -8.624244 -2.889757 0.000347 0.000600 90.717842 6.019211 -6.140483 -2.638817 -0.000001 0.000947 -0.000002 0.000001 -0.000000 -8.076736 -0.486380 -3.806080 80.620029 15.790562 -13.292627 -3.600022 0.000264 -0.003532 84.746877 7.990738 -6.969318 -2.100026 0.000314 -0.005508 88.337616 5.035164 -4.680061 -2.115762 -0.000026 -0.003674 -0.000001 0.000001 -0.000002 4.570446 11.014691 -2.160851 -0.000018 0.000010 -0.000021 10.592495 -0.524542 -2.232382 57.611785 -57.399079 33.508891 27.841757 -0.000032 -0.000131 240.487108 -81.108442 248.536077 28.328821 -0.000028 0.000018 0.000020 -0.000088 0.000001 2.466233 -1.576065 2.681832 10.042317 162.859372 -97.460987 3.217859 -1.871942 1.916529 26.419730 161.480890 -110.123550 2.656102 -1.528633 1.514598 -140.983806 9.298038 53.015129 2.020887 -1.154078 1.115153 -0.000000 0.000001 0.000004 9.109389 -0.517936 2.259778 -110.714348 -145.728793 204.042271 3.700063 0.000050 -0.000405 69.859202 -35.321647 385.086885 2.850054 0.000104 0.000234 68.210265 -24.734504 376.890385 2.774887 -0.000030 -0.000027 -0.000001 -0.000001 0.000000 9.533466 0.000163 -0.000069 74.315013 -26.467511 20.203749 3.700053 0.000128 -0.000358 -103.568515 -161.219362 194.835340 2.950048 0.000134 -0.000204 -100.867660 -164.683456 192.682164 2.952864 -0.000014 0.000062 -0.000001 -0.000000 0.000001 9.104599 -0.042925 -1.865199 -107.122522 -149.554505 202.721626 3.150011 0.000211 -0.000124 -100.076116 -179.331589 180.561419 2.949951 0.000240 -0.000163 -93.577417 -188.363135 172.142924 2.644325 0.000031 0.000055 0.000001 0.000001 -0.000000 8.077845 -0.486790 -3.806353 238.446794 -149.186385 197.931000 3.599922 0.000190 0.014529 69.540847 9.115306 -6.093702 2.099934 0.000214 0.007502 77.330398 17.173947 -13.564733 2.125503 -0.000016 0.007517 0.000001 -0.000003 0.000000 -8.207786 -6.751667 -1.599560 -0.077001 -0.000003 0.000080 -0.000002 -44.370110 0.345938 0.153719 -0.000000 -0.000000 0.000000 -44.423679 -3.043532 -0.076700 0.000000 -0.000002 -0.000006 -8.728667 10.710559 -0.000009 -0.000000 -0.000000 -0.000001 -0.000679 9.278123 0.000000 -0.000000 -0.000000 8.207792 -6.751710 -1.599556 -0.074518 -0.000003 0.000081 -0.000002 -44.370014 0.346960 0.148822 0.000002 0.000000 -0.000001 -44.423664 -3.044403 -0.074314 0.000000 -0.000002 -0.000004 -8.728671 10.710558 0.000007 -0.000000 -0.000000 0.000000 -0.000680 9.278137 -0.000000 0.000000 -0.000001 
0.000006 104.270477 1.554256 0.000010 0.000003 -0.000113 -0.000005 10.181587 0.131522 0.000001 -0.000003 0.000084 -0.000000 9.893967 -1.470711 0.000001 0.000000 -0.000000 -0.000000 9.220802 -1.370642 0.000000 -0.000000 -0.000000 0.000001 16.740433 -2.049030 0.000000 -0.000000 -0.000000 0.000000 9.617859 1.685014 0.000000 0.000000 0.000000 0.000002 22.037384 7.501101 0.000000 -0.000000 0.000000 -4.569968 11.014880 -2.160881 0.000008 0.000001 -0.000038 -10.592884 -0.524725 -2.231982 67.723655 17.951615 -12.099991 -27.841532 0.000000 0.000534 121.174072 67.504884 -99.693940 -28.328854 0.000007 0.000026 -0.000322 -0.000045 0.000008 -2.464444 -1.573881 2.682398 -33.618584 -158.844942 22.626233 -3.215280 -1.872621 1.924678 161.397343 30.513255 -5.331908 -2.654931 -1.527903 1.513096 147.104161 25.478393 -51.326758 -2.018815 -1.151996 1.108052 0.000000 0.000002 0.000003 -9.108375 -0.517567 2.260092 90.116908 17.571097 -17.653759 -3.700079 0.000309 0.001491 88.534900 15.240406 -14.836486 -2.850080 0.000361 -0.000287 87.266977 11.378480 -10.850625 -2.772163 -0.000014 -0.000022 0.000002 0.000000 -0.000000 -9.532587 0.000275 0.000188 85.152180 14.190234 -13.176828 -3.700073 0.000330 0.003926 85.807202 10.992825 -10.133701 -2.950051 0.000338 -0.001851 87.583003 10.768342 -10.319117 -2.946618 0.000001 -0.000151 0.000003 0.000000 0.000000 -9.103686 -0.042752 -1.864908 83.612662 15.638668 -13.963482 -3.379316 0.000327 -0.000838 87.077897 8.998646 -8.569097 -2.889756 0.000345 0.000624 91.138588 6.062306 -6.229630 -2.638827 0.000001 0.000940 0.000002 -0.000001 0.000001 -8.076729 -0.486384 -3.806061 79.715042 15.406665 -12.761204 -3.600035 0.000257 -0.003539 84.688144 7.716252 -6.713015 -2.100003 0.000317 -0.005506 88.905588 4.855490 -4.550926 -2.115761 -0.000039 -0.003686 0.000004 -0.000002 -0.000003 4.570446 11.014691 -2.160851 -0.000018 0.000010 -0.000021 10.592494 -0.524548 -2.232374 50.892248 -61.406911 31.556553 27.841774 -0.000054 -0.000138 236.545734 -84.728490 241.059342 28.328840 -0.000028 0.000014 0.000022 -0.000084 -0.000000 2.466243 -1.576076 2.681847 24.733563 158.510563 -107.691244 3.217868 -1.871900 1.916509 30.947799 173.773154 -125.406672 2.656093 -1.528534 1.514572 -144.869733 -15.156197 30.048499 2.020890 -1.154070 1.115143 0.000004 -0.000000 0.000006 9.109297 -0.518039 2.259939 -193.128093 -46.730460 150.144470 3.699999 -0.000031 -0.000253 151.867112 -58.222745 491.577403 2.850053 0.000021 0.000390 136.983228 -53.673119 464.166925 2.774882 -0.000015 -0.000023 -0.000001 0.000001 0.000002 9.533373 0.000039 0.000120 162.879958 -45.583286 140.562575 3.700044 0.000004 -0.000183 -14.461080 -156.240509 297.798761 2.950084 0.000061 -0.000069 -56.240758 -134.087487 256.806261 2.952872 -0.000017 0.000063 0.000001 -0.000002 0.000001 9.104584 -0.042999 -1.865060 -37.989922 -126.378416 291.482776 3.149956 0.000410 -0.000031 -38.129903 -184.405778 167.301522 2.950044 0.000207 -0.000035 -62.127537 -166.865633 201.642279 2.644318 0.000013 0.000063 -0.000000 -0.000001 0.000003 8.077864 -0.486777 -3.806362 249.655681 -145.794759 204.654447 3.599760 0.000182 0.014530 86.747603 50.197676 -47.794867 2.099974 0.000153 0.007506 67.038751 9.516711 -6.093831 2.125481 -0.000019 0.007522 -0.000001 0.000001 -0.000003 -8.207786 -6.751667 -1.599560 -0.077001 -0.000003 0.000080 -0.000002 -44.370110 0.345938 0.153719 -0.000000 -0.000000 0.000000 -44.423679 -3.043532 -0.076700 0.000000 -0.000002 -0.000006 -8.728667 10.710559 -0.000009 -0.000000 -0.000000 -0.000001 -0.000679 9.278123 0.000000 -0.000000 -0.000000 8.207792 -6.751710 -1.599556 -0.074518 -0.000003 0.000081 -0.000002 -44.370014 0.346960 0.148822 0.000002 0.000000 -0.000001 -44.423664 -3.044403 -0.074314 0.000000 -0.000002 -0.000004 -8.728671 10.710558 0.000007 -0.000000 -0.000000 0.000000 -0.000680 9.278137 -0.000000 0.000000 -0.000001 
0.000006 104.270477 1.554256 0.000010 0.000003 -0.000113 -0.000005 10.181587 0.131522 0.000001 -0.000003 0.000084 -0.000000 9.893967 -1.470711 0.000001 0.000000 -0.000000 -0.000000 9.220802 -1.370642 0.000000 -0.000000 -0.000000 0.000001 16.740433 -2.049030 0.000000 -0.000000 -0.000000 0.000000 9.617859 1.685014 0.000000 0.000000 0.000000 0.000002 22.037384 7.501101 0.000000 -0.000000 0.000000 -4.569968 11.014880 -2.160881 0.000008 0.000001 -0.000038 -10.592885 -0.524719 -2.231979 67.922837 17.150190 -11.598422 -27.841530 0.000018 0.000531 121.190587 70.067332 -102.410600 -28.328842 0.000009 0.000025 -0.000322 -0.000045 0.000006 -2.464422 -1.573838 2.682383 -38.693261 -161.493280 12.478092 -3.215292 -1.872588 1.924661 160.169575 31.550881 0.063494 -2.654928 -1.527926 1.513108 147.704589 25.347189 -50.747479 -2.018835 -1.151998 1.108061 -0.000006 0.000000 0.000005 -9.108365 -0.517554 2.260086 90.579223 17.280387 -17.500855 -3.700084 0.000305 0.001469 88.280352 15.711891 -15.229319 -2.850098 0.000364 -0.000314 87.332957 11.887522 -11.349376 -2.772161 -0.000016 -0.000023 -0.000003 -0.000000 -0.000001 -9.532589 0.000268 0.000197 85.300395 13.977781 -13.014320 -3.700071 0.000324 0.003926 84.991800 11.306117 -10.277916 -2.950059 0.000339 -0.001855 87.164245 10.865126 -10.336463 -2.946617 -0.000000 -0.000155 -0.000002 0.000000 0.000000 -9.103669 -0.042758 -1.864916 84.050839 15.432375 -13.883767 -3.379335 0.000317 -0.000840 86.664473 9.142066 -8.643049 -2.889765 0.000360 0.000596 90.827712 6.167357 -6.302631 -2.638828 -0.000015 0.000945 -0.000002 -0.000000 -0.000002 -8.076731 -0.486380 -3.806063 80.059229 15.403747 -12.836235 -3.600034 0.000282 -0.003539 84.159658 7.715564 -6.650562 -2.100019 0.000318 -0.005500 88.202905 4.687314 -4.333007 -2.115765 -0.000042 -0.003680 0.000002 -0.000000 -0.000005 4.570446 11.014691 -2.160851 -0.000018 0.000010 -0.000021 10.592498 -0.524543 -2.232383 56.583664 -59.323881 34.085407 27.841747 -0.000051 -0.000144 278.400286 -84.419007 283.882633 28.328823 -0.000018 0.000021 0.000020 -0.000091 0.000001 2.466097 -1.575772 2.681733 -5.779056 216.674870 -190.593410 3.217819 -1.871998 1.916544 11.677623 153.715006 -87.898702 2.656111 -1.528645 1.514585 -154.981664 5.252076 58.978759 2.020894 -1.154062 1.115149 0.000001 0.000001 0.000004 9.109465 -0.517899 2.259885 -198.069448 -16.821149 85.772928 3.700110 0.000182 -0.000362 137.539041 -20.760601 410.534367 2.850109 0.000241 0.000252 116.460230 -18.496900 389.460556 2.774891 -0.000049 -0.000027 -0.000001 -0.000003 -0.000005 9.533546 0.000248 0.000068 163.022299 -10.761256 64.452479 3.700103 0.000257 -0.000296 -43.756494 -166.493183 212.854472 2.950074 0.000242 -0.000166 -64.106762 -166.436916 201.510893 2.952871 -0.000014 0.000063 -0.000002 -0.000001 -0.000002 9.104679 -0.042745 -1.865073 -18.618797 -170.080494 235.804440 3.150069 0.000282 -0.000035 -47.958402 -170.556408 201.043954 2.950035 0.000270 -0.000057 -63.662568 -171.036584 194.395011 2.644322 0.000044 0.000059 -0.000001 -0.000001 -0.000002 8.077911 -0.486597 -3.806278 334.398576 -169.911174 225.002250 3.600001 0.000367 0.014641 131.538242 -4.775385 11.625353 2.100003 0.000321 0.007560 117.457083 -1.907312 3.835254 2.125498 -0.000025 0.007516 0.000001 -0.000000 -0.000004 -8.207786 -6.751667 -1.599560 -0.077001 -0.000003 0.000080 -0.000002 -44.370110 0.345938 0.153719 -0.000000 -0.000000 0.000000 -44.423679 -3.043532 -0.076700 0.000000 -0.000002 -0.000006 -8.728667 10.710559 -0.000009 -0.000000 -0.000000 -0.000001 -0.000679 9.278123 0.000000 -0.000000 -0.000000 8.207792 -6.751710 -1.599556 -0.074518 -0.000003 0.000081 -0.000002 -44.370014 0.346960 0.148822 0.000002 0.000000 -0.000001 -44.423664 -3.044403 -0.074314 0.000000 -0.000002 -0.000004 -8.728671 10.710558 0.000007 -0.000000 -0.000000 0.000000 -0.000680 9.278137 -0.000000 0.000000 -0.000001 
